# xmcd CD database file
#
# Track frame offsets:
#	150
#	25285
#	50900
#	72270
#	92462
#	113095
#	133082
#	146642
#	173730
#	189015
#	215357
#
# Disc length: 3033 seconds
#
# Revision: 0
# Processed by: cddbd v1.5.2PL0 Copyright (c) Steve Scherf et al.
# Submitted via: CDex 1.70beta2
#
DISCID=990bd70b
DTITLE=Michael Kocour - Speaking in Tongues
DYEAR=1996
DGENRE=Jazz
TTITLE0=Un Poco Loco
TTITLE1=Ugly Beauty
TTITLE2=Think of One
TTITLE3=Wail
TTITLE4=Ask Me Now
TTITLE5=Bye-ya
TTITLE6=Oblivion
TTITLE7=Pannonica/Epistrophy
TTITLE8=Parisian Thoroughfare
TTITLE9=Four in One
TTITLE10=Dusk in Sandi
EXTD=YEAR: 1996
EXTT0=
EXTT1=
EXTT2=
EXTT3=
EXTT4=
EXTT5=
EXTT6=
EXTT7=
EXTT8=
EXTT9=
EXTT10=
PLAYORDER=
